HIERARCHY
ROOT Hips
{
	OFFSET 0.00000 0.00000 0.00000
	CHANNELS 6 Xposition Yposition Zposition Zrotation Yrotation Xrotation 
	JOINT LHipJoint
	{
		OFFSET 0 0 0
		CHANNELS 3 Zrotation Yrotation Xrotation
		JOINT LeftUpLeg
		{
			OFFSET 1.62964 -1.40469 0.78906
			CHANNELS 3 Zrotation Yrotation Xrotation
			JOINT LeftLeg
			{
				OFFSET 2.29640 -6.30932 0.00000
				CHANNELS 3 Zrotation Yrotation Xrotation
				JOINT LeftFoot
				{
					OFFSET 2.29451 -6.30412 0.00000
					CHANNELS 3 Zrotation Yrotation Xrotation
					JOINT LeftToeBase
					{
						OFFSET 0.03611 -0.09921 1.56387
						CHANNELS 3 Zrotation Yrotation Xrotation
						End Site
						{
							OFFSET 0.00000 -0.00000 0.80291
						}
					}
				}
			}
		}
	}
	JOINT RHipJoint
	{
		OFFSET 0 0 0
		CHANNELS 3 Zrotation Yrotation Xrotation
		JOINT RightUpLeg
		{
			OFFSET -1.73712 -1.40469 0.78906
			CHANNELS 3 Zrotation Yrotation Xrotation
			JOINT RightLeg
			{
				OFFSET -2.28137 -6.26801 0.00000
				CHANNELS 3 Zrotation Yrotation Xrotation
				JOINT RightFoot
				{
					OFFSET -2.28681 -6.28298 0.00000
					CHANNELS 3 Zrotation Yrotation Xrotation
					JOINT RightToeBase
					{
						OFFSET -0.15927 -0.43759 1.61103
						CHANNELS 3 Zrotation Yrotation Xrotation
						End Site
						{
							OFFSET -0.00000 -0.00000 0.84630
						}
					}
				}
			}
		}
	}
	JOINT LowerBack
	{
		OFFSET 0 0 0
		CHANNELS 3 Zrotation Yrotation Xrotation
		JOINT Spine
		{
			OFFSET -0.04227 2.04338 -0.00225
			CHANNELS 3 Zrotation Yrotation Xrotation
			JOINT Spine1
			{
				OFFSET -0.02148 2.04482 -0.04273
				CHANNELS 3 Zrotation Yrotation Xrotation
				JOINT Neck
				{
					OFFSET 0 0 0
					CHANNELS 3 Zrotation Yrotation Xrotation
					JOINT Neck1
					{
						OFFSET 0.09180 1.44629 0.19359
						CHANNELS 3 Zrotation Yrotation Xrotation
						JOINT Head
						{
							OFFSET 0.00887 1.40645 0.14750
							CHANNELS 3 Zrotation Yrotation Xrotation
							End Site
							{
								OFFSET -0.00669 1.50671 0.03707
							}
						}
					}
				}
				JOINT LeftShoulder
				{
					OFFSET 0 0 0
					CHANNELS 3 Zrotation Yrotation Xrotation
					JOINT LeftArm
					{
						OFFSET 2.17674 1.86763 -0.06520
						CHANNELS 3 Zrotation Yrotation Xrotation
						JOINT LeftForeArm
						{
							OFFSET 4.65776 -0.00000 0.00000
							CHANNELS 3 Zrotation Yrotation Xrotation
							JOINT LeftHand
							{
								OFFSET 3.55539 -0.00000 0.00000
								CHANNELS 3 Zrotation Yrotation Xrotation
								JOINT LeftFingerBase
								{
									OFFSET 0 0 0
									CHANNELS 3 Zrotation Yrotation Xrotation
									JOINT LeftHandIndex1
									{
										OFFSET 0.70726 -0.00000 0.00000
										CHANNELS 3 Zrotation Yrotation Xrotation
										End Site
										{
											OFFSET 0.57022 -0.00000 0.00000
										}
									}
								}
								JOINT LThumb
								{
									OFFSET 0 0 0
									CHANNELS 3 Zrotation Yrotation Xrotation
									End Site
									{
										OFFSET 0.57892 -0.00000 0.57892
									}
								}
							}
						}
					}
				}
				JOINT RightShoulder
				{
					OFFSET 0 0 0
					CHANNELS 3 Zrotation Yrotation Xrotation
					JOINT RightArm
					{
						OFFSET -2.80694 1.55459 -0.32496
						CHANNELS 3 Zrotation Yrotation Xrotation
						JOINT RightForeArm
						{
							OFFSET -4.71925 -0.00000 -0.00000
							CHANNELS 3 Zrotation Yrotation Xrotation
							JOINT RightHand
							{
								OFFSET -3.56990 -0.00000 0.00000
								CHANNELS 3 Zrotation Yrotation Xrotation
								JOINT RightFingerBase
								{
									OFFSET 0 0 0
									CHANNELS 3 Zrotation Yrotation Xrotation
									JOINT RightHandIndex1
									{
										OFFSET -0.50776 -0.00000 0.00000
										CHANNELS 3 Zrotation Yrotation Xrotation
										End Site
										{
											OFFSET -0.40937 -0.00000 0.00000
										}
									}
								}
								JOINT RThumb
								{
									OFFSET 0 0 0
									CHANNELS 3 Zrotation Yrotation Xrotation
									End Site
									{
										OFFSET -0.41562 -0.00000 0.41562
									}
								}
							}
						}
					}
				}
			}
		}
	}
}
MOTION
Frames: 5
Frame Time: .0083333
16.4605 17.9674 20.5639 0 0 0 0 0 0 -21 0 0 0 0 0 0 0 0 0 0 0 0 0 0 21 0 0 0 0 0 0 0 0 0 0 0 0 0 0 0 0 0 0 0 0 0 0 -16 0 0 21 0 0 11 0 0 0 -8 0 0 0 0 0 0 0 0 0 0 0 0 0 0 0 0 0 0 0 0 8 0 0 0 0 0 0 0 0 0 0 0 0 0 0 0 0 0
16.4605 17.9674 20.5639 177.6720 -2.1441 -153.5920 0.0000 0.0000 0.0000 -20.8513 -16.4739 -19.0705 0.2284 3.0759 8.4902 0.0386 -6.6491 -5.5710 0.4313 -4.2143 -11.6804 0.0000 0.0000 0.0000 19.6610 12.5866 -19.0006 -0.1156 -2.1919 6.0363 -1.2572 3.5721 -20.3169 -0.8172 5.7683 -16.1136 -7.1853 -2.5525 -30.0256 -0.0093 -1.6324 -1.5348 3.1658 -1.4834 14.2137 -0.4883 -1.4149 -5.3121 3.7939 -2.3830 8.5539 1.2216 -1.1043 3.7903 0.0000 0.0000 0.0000 -84.5296 1.2058 20.8541 12.3644 -20.3489 -2.2274 -0.0000 -0.0000 3.1317 21.3625 -11.8024 -4.5741 -7.1250 0.0000 -0.0000 -4.0577 17.3534 2.6695 0.0000 0.0000 0.0000 91.0988 -7.3543 8.5663 -18.9620 29.3715 -5.0122 0.0000 -0.0000 -3.8033 -10.0607 -54.4987 8.2188 7.1250 -0.0000 -0.0000 73.2204 -75.3664 -58.2560
16.4592 17.9689 20.5634 177.6530 -2.1490 -153.5890 0.0000 0.0000 0.0000 -20.9007 -16.4017 -19.1581 0.2345 3.1166 8.6036 0.0385 -6.7396 -5.6214 0.4973 -4.5209 -12.5471 0.0000 0.0000 0.0000 19.6081 12.6563 -18.9240 -0.1129 -2.1668 5.9668 -1.2518 3.5580 -20.2737 -0.7535 5.5440 -15.4670 -7.2089 -2.5603 -30.0385 -0.0053 -1.6350 -1.5366 3.1814 -1.4866 14.2180 -0.4828 -1.4170 -5.4142 3.7371 -2.3924 8.7349 1.2016 -1.1096 3.8733 -0.0000 -0.0000 0.0000 -84.5547 1.1771 20.4765 12.1213 -19.9862 -2.1436 -0.0000 -0.0000 3.3112 21.3473 -11.6710 -4.5206 -7.1250 0.0000 -0.0000 -4.0641 17.4945 2.6611 -0.0000 -0.0000 0.0000 91.0723 -7.3615 8.4200 -18.8631 29.2482 -4.9638 0.0000 -0.0000 -3.6676 -9.4535 -53.6913 7.6422 7.1250 -0.0000 -0.0000 70.4251 -74.9555 -55.1764
16.4580 17.9696 20.5611 177.7070 -2.1705 -153.6800 0.0000 0.0000 0.0000 -20.8358 -16.4707 -19.0223 0.2340 3.1132 8.5941 0.0416 -6.6913 -5.6626 0.4095 -4.1077 -11.3799 0.0000 0.0000 0.0000 19.6594 12.6911 -18.8089 -0.1142 -2.1784 5.9989 -1.2497 3.5482 -20.2579 -0.7330 5.4699 -15.2539 -7.1370 -2.5418 -29.9995 -0.0005 -1.6302 -1.5060 3.1513 -1.4782 14.2356 -0.4010 -1.4378 -5.4674 3.5974 -2.4216 8.8654 1.1390 -1.1262 3.9265 -0.0000 -0.0000 0.0000 -84.5864 1.1315 20.0270 11.8753 -19.6174 -2.0602 -0.0000 -0.0000 3.6250 21.3675 -11.7506 -4.5556 -7.1250 0.0000 -0.0000 -4.0525 17.4081 2.6612 -0.0000 -0.0000 0.0000 91.0934 -7.2961 8.1862 -18.7355 29.0886 -4.9016 0.0000 -0.0000 -3.5817 -9.3371 -53.2126 7.5015 7.1250 -0.0000 -0.0000 68.7466 -74.7826 -53.4333
16.4576 17.9706 20.5604 177.6530 -2.1387 -153.6980 0.0000 0.0000 0.0000 -20.8940 -16.5354 -18.9586 0.2323 3.1019 8.5626 0.0430 -6.6478 -5.6685 0.3473 -3.7865 -10.4766 0.0000 0.0000 0.0000 19.5976 12.6134 -18.8574 -0.1159 -2.1946 6.0439 -1.2407 3.5445 -20.1825 -0.7752 5.6218 -15.6909 -7.2104 -2.5515 -29.9944 -0.0121 -1.6180 -1.5084 3.1831 -1.4773 14.2293 -0.3083 -1.4771 -5.4900 3.4768 -2.4792 8.9835 1.0793 -1.1567 3.9701 -0.0000 -0.0000 0.0000 -84.5913 1.1721 19.8148 11.6620 -19.2958 -1.9892 -0.0000 -0.0000 3.8089 21.7249 -11.7899 -4.6544 -7.1250 0.0000 -0.0000 -3.8041 17.3338 2.5035 -0.0000 -0.0000 0.0000 91.1242 -7.2345 7.9350 -18.5952 28.9126 -4.8336 0.0000 -0.0000 -3.3044 -10.0097 -53.7699 8.1030 7.1250 -0.0000 -0.0000 70.5008 -75.1836 -55.5015
